<?xml version="1.0" encoding="utf-8"?>
<!-- Generator: Adobe Illustrator 16.0.0, SVG Export Plug-In . SVG Version: 6.00 Build 0)  -->
<!DOCTYPE svg PUBLIC "-//W3C//DTD SVG 1.1//EN" "http://www.w3.org/Graphics/SVG/1.1/DTD/svg11.dtd">
<svg version="1.1" id="Layer_1" xmlns="http://www.w3.org/2000/svg" xmlns:xlink="http://www.w3.org/1999/xlink" x="0px" y="0px"
	 width="245px" height="35px" viewBox="0 0 245 35" enable-background="new 0 0 245 35" xml:space="preserve">
<g opacity="0.5">
	<path fill="#628D80" d="M242.709,31c0,1.1-0.898,1.943-1.996,1.875L5.71,18.125C4.612,18.056,3.714,17.1,3.714,16V5.357
		c0-1.1,0.899-1.966,1.998-1.925l234.999,8.85c1.098,0.042,1.998,0.975,1.998,2.075V31z"/>
	<g>
		<path fill="#618C80" d="M242.709,31c-0.051-0.031,0.137,0.582-0.533,1.328c-0.326,0.359-0.93,0.639-1.652,0.557
			c-0.713-0.041-1.537-0.086-2.469-0.139c-1.867-0.115-4.17-0.232-6.879-0.338c-2.707-0.127-5.822-0.242-9.312-0.338
			c-6.979-0.209-15.463-0.32-25.191-0.51c-4.863-0.096-10.035-0.247-15.488-0.428c-5.451-0.189-11.16-0.744-17.133-1.066
			c-23.881-1.498-51.741-3.246-81.592-5.12c-14.925-0.937-30.348-1.905-46.02-2.888c-7.836-0.492-15.733-0.988-23.663-1.486
			c-1.982-0.123-3.966-0.248-5.952-0.373L6.08,20.152l-0.372-0.023c0.116,0.016-0.368-0.032-0.386-0.041l-0.184-0.029
			c-0.08-0.017-0.081-0.008-0.226-0.044c-0.147-0.038-0.294-0.083-0.439-0.134C4.33,19.83,4.185,19.773,4.05,19.712l-0.311-0.179
			c-0.416-0.24-0.772-0.561-1.072-0.926c-0.604-0.708-0.962-1.725-0.953-2.646v-1.494V8.489V5.498
			c0.007-0.153-0.016,0.079,0.016-0.391l0.019-0.186c0.009-0.074,0.006-0.098,0.025-0.213c0.03-0.155,0.067-0.312,0.111-0.466
			C1.93,4.088,1.981,3.933,2.038,3.789L2.216,3.45c0.117-0.229,0.261-0.438,0.434-0.628c0.653-0.781,1.636-1.284,2.642-1.366
			c63.853,2.39,127.705,4.779,175.594,6.572c2.988,0.104,5.916,0.207,8.777,0.307c2.861,0.07,5.654,0.18,8.375,0.377
			c5.443,0.363,10.604,0.744,15.453,1.13c9.697,0.788,18.15,1.516,25.117,1.996c0.883,0.083,1.689,0.068,2.57,0.226
			c0.965,0.28,1.574,1.063,1.705,1.919c0.045,1.622-0.037,3.029-0.047,4.399c-0.064,2.711-0.086,5.017-0.09,6.886
			C242.721,29.006,242.709,31,242.709,31z M242.709,31c0,0-0.014-1.994-0.037-5.732c-0.004-1.869-0.027-4.175-0.09-6.886
			c-0.041-1.338-0.023-2.849-0.117-4.328c-0.121-0.684-0.732-1.28-1.375-1.426c-0.75-0.093-1.654-0.035-2.51-0.06
			c-6.982-0.045-15.467,0.044-25.195,0.101c-4.865,0.021-10.041,0.012-15.494-0.035c-2.729-0.008-5.523-0.108-8.381-0.253
			c-2.861-0.116-5.787-0.234-8.775-0.354C132.982,10.229,69.312,7.835,5.642,5.44c0.015,0,0.046-0.015,0.06-0.033
			c-0.003-0.01,0.001-0.014,0.011-0.016c0.002-0.003,0.001-0.007-0.004-0.012c0.018-0.027,0.033-0.062,0.039-0.097
			C5.77,4.854,5.681,5.764,5.714,5.498v2.991v5.979v1.494c0.011,0.077,0.007,0.047,0.041,0.104c0.012,0.017,0.031,0.043,0.05,0.042
			c0.004,0.002,0.007,0.007,0.008,0.015c-0.019-0.015-0.047-0.03-0.075-0.036c-0.028-0.007-0.059-0.008-0.089-0.002
			c-0.027,0.006,0.099,0.019,0.14,0.028l0.184,0.03c0.104,0.018-0.254-0.029-0.014-0.004l0.372,0.023l0.745,0.046
			c1.985,0.125,3.97,0.25,5.952,0.374c7.929,0.498,15.827,0.994,23.663,1.485c15.671,0.983,31.094,1.952,46.02,2.888
			c29.85,1.874,57.712,3.622,81.591,5.12c5.967,0.429,11.701,0.592,17.133,1.086c5.432,0.502,10.582,1,15.42,1.512
			c9.676,1.029,18.107,1.979,25.057,2.643c3.475,0.344,6.58,0.619,9.283,0.83c2.701,0.234,5,0.406,6.865,0.525
			c0.932,0.064,1.756,0.123,2.467,0.172c0.715,0.09,1.309-0.176,1.637-0.525C242.836,31.586,242.66,30.968,242.709,31z"/>
	</g>
</g>
<g opacity="0.5">
	<path fill="#628D80" d="M240.201,23.24c-0.271,1.066-1.393,1.93-2.492,1.92L7.006,22.963c-1.101-0.011-2-0.92-2-2.02V10.301
		c0-1.1,0.9-2,2-2H242c1.1,0,1.779,0.872,1.508,1.938L240.201,23.24z"/>
	<g>
		<path fill="#618C80" d="M240.201,23.24c-0.033-0.027-0.037,0.548-0.75,1.209c-0.344,0.319-0.875,0.66-1.586,0.719
			c-0.703,0.027-1.514,0.004-2.434,0.008c-1.84-0.016-4.107-0.01-6.775,0.03c-2.668,0.017-5.734,0.067-9.168,0.159
			c-6.869,0.162-15.213,0.502-24.781,0.832c-4.783,0.162-9.875,0.288-15.24,0.398c-5.367,0.102-11.006-0.148-16.891-0.151
			c-23.545-0.225-51.012-0.485-80.441-0.767c-14.714-0.14-29.919-0.285-45.37-0.432c-7.725-0.074-15.512-0.148-23.328-0.223
			c-1.955-0.019-3.911-0.037-5.868-0.056l-0.367-0.003l-0.184-0.002c-0.465-0.025-0.233-0.019-0.385-0.029
			c-0.15-0.023-0.152,0.002-0.532-0.09c-0.279-0.072-0.643-0.18-0.826-0.292c-0.879-0.426-1.58-1.165-1.959-2.069
			c-0.084-0.229-0.157-0.465-0.22-0.701c-0.044-0.24-0.066-0.486-0.084-0.73C3,20.699,3.009,20.531,3.006,20.263v-1.47V12.91v-1.471
			v-0.736v-0.368c0.02-0.467,0.017-0.234,0.025-0.386L3.05,9.766c-0.003-0.024,0.029-0.197,0.066-0.35
			c0.035-0.151,0.078-0.302,0.127-0.449c0.1-0.327,0.213-0.473,0.334-0.708c0.25-0.419,0.574-0.795,0.961-1.093
			c0.38-0.302,0.82-0.544,1.295-0.679c0.234-0.08,0.474-0.132,0.721-0.151c0.249-0.028,0.521-0.041,0.594-0.036
			c62.785,0,125.571,0,172.659,0c2.943-0.008,5.826-0.016,8.643-0.024c2.816-0.038,5.568-0.033,8.25,0.062
			c5.365,0.158,10.453,0.345,15.236,0.548c9.564,0.422,17.904,0.831,24.771,1.048c1.717,0.054,3.342,0.105,4.869,0.153l0.287,0.006
			l0.162,0.004l0.141,0.017c0.178,0.007,0.385,0.064,0.594,0.146c0.385,0.174,0.686,0.484,0.844,0.855
			c0.148,0.378,0.129,0.777,0.051,1.138c-0.092,0.334-0.182,0.662-0.27,0.984c-0.719,2.569-1.301,4.762-1.758,6.544
			C240.697,21.342,240.201,23.24,240.201,23.24z M240.201,23.24c0,0,0.473-1.904,1.355-5.476c0.449-1.784,0.986-3.988,1.582-6.588
			c0.129-0.654,0.422-1.338,0.154-1.928c-0.135-0.285-0.381-0.512-0.676-0.635c-0.141-0.047-0.289-0.097-0.492-0.098l-0.143-0.011
			l-0.119,0.003l-0.287,0.006c-1.527,0.048-3.152,0.099-4.869,0.153c-6.867,0.217-15.207,0.626-24.771,1.048
			c-4.783,0.204-9.871,0.391-15.236,0.548c-2.682,0.095-5.434,0.1-8.25,0.062c-2.816-0.008-5.699-0.016-8.643-0.024
			c-47.088,0-109.874,0-172.659,0c-0.174-0.005-0.145,0.013-0.14,0.01c0-0.01,0.001-0.008,0.005-0.001
			c0.001-0.011,0.001-0.003,0.002-0.001c-0.004-0.004-0.004,0.003-0.003,0.002c0.018-0.014-0.032,0.035,0.016-0.048
			c0.013-0.03,0.019-0.064,0.018-0.098c0.001-0.036-0.011-0.093-0.016,0.007l-0.019,0.183c0-0.029-0.026,0.325-0.005-0.02v0.368
			v0.736v1.471v5.883v1.47c0.002,0.221-0.005,0.544,0.005,0.681c0.011-0.001,0.003-0.002-0.004,0c0.012-0.004,0.011-0.006,0-0.001
			c0.001,0.001,0.018,0.017,0.021,0.015c0.022,0.025-0.088-0.053-0.14-0.035c-0.152,0.004,0.096,0.025,0.188,0.036
			c-0.029-0.001,0.322,0.028-0.02,0.005l0.184,0.002l0.367,0.004c1.957,0.018,3.914,0.037,5.868,0.055
			c7.817,0.074,15.604,0.148,23.328,0.223c15.45,0.146,30.655,0.292,45.37,0.432c29.43,0.281,56.897,0.543,80.44,0.767
			c5.885,0.109,11.527-0.034,16.891,0.171c5.363,0.212,10.451,0.434,15.23,0.688c9.561,0.512,17.896,1.012,24.76,1.305
			c3.434,0.156,6.498,0.267,9.164,0.334c2.666,0.09,4.936,0.139,6.773,0.159c0.92,0.008,1.734,0.043,2.432,0.024
			c0.697-0.048,1.23-0.377,1.576-0.689C240.156,23.788,240.17,23.213,240.201,23.24z"/>
	</g>
</g>
</svg>
