<?xml version="1.0" encoding="utf-8"?>
<!-- Generator: Adobe Illustrator 16.0.0, SVG Export Plug-In . SVG Version: 6.00 Build 0)  -->
<!DOCTYPE svg PUBLIC "-//W3C//DTD SVG 1.1//EN" "http://www.w3.org/Graphics/SVG/1.1/DTD/svg11.dtd">
<svg version="1.1" id="Layer_1" xmlns="http://www.w3.org/2000/svg" xmlns:xlink="http://www.w3.org/1999/xlink" x="0px" y="0px"
	 width="245px" height="29px" viewBox="0 0 245 29" enable-background="new 0 0 245 29" xml:space="preserve">
<g opacity="0.5">
	<path fill="#738035" d="M242.494,22.995c0,1.101-0.9,1.978-2,1.95l-234.995-5.9c-1.1-0.027-1.999-0.949-1.999-2.05V8.891
		c0-1.1,0.9-2,2-2h234.994c1.1,0,2,0.9,2,2V22.995z"/>
	<g>
		<path fill="#738035" d="M242.742,23.021c0,0-0.012,0.122-0.037,0.364c-0.061,0.27-0.176,0.709-0.549,1.094
			c-0.348,0.39-1.006,0.767-1.781,0.705c-0.705-0.02-1.521-0.041-2.445-0.066c-3.695-0.098-9.117-0.24-16.016-0.422
			c-3.451-0.076-7.27-0.162-11.43-0.254c-4.158-0.067-8.656-0.141-13.463-0.218c-9.611-0.161-20.457-0.321-32.289-0.446
			c-11.83-0.166-24.648-0.346-38.205-0.534c-13.556-0.187-27.849-0.513-42.636-0.78c-14.787-0.283-30.066-0.576-45.593-0.873
			c-7.764-0.148-15.588-0.299-23.443-0.449c-1.965-0.037-3.93-0.076-5.897-0.113l-2.952-0.057l-0.369-0.007l-0.185-0.003
			c-0.447-0.037-0.229-0.023-0.376-0.037c-0.055,0.025-1.005-0.186-1.349-0.414c-0.847-0.438-1.515-1.168-1.875-2.059
			c-0.079-0.227-0.153-0.458-0.208-0.691c-0.036-0.238-0.062-0.48-0.076-0.721l-0.007-0.761l-0.009-1.478l-0.018-2.957l-0.009-1.479
			L1.521,9.625L1.52,9.256L1.519,9.071c0.005-0.151-0.011,0.078,0.01-0.386l0.035-0.368c0.03-0.214,0.123-0.583,0.221-0.856
			c0.203-0.505,0.448-0.894,0.784-1.266c0.656-0.722,1.6-1.196,2.586-1.279c15.834-0.127,31.667-0.254,47.253-0.379
			c15.528-0.084,30.812-0.168,45.601-0.249c7.395,0.023,14.666,0.045,21.784,0.067c7.117,0.012,14.08,0.042,20.859,0.132
			c13.557,0.117,26.375,0.397,38.205,0.689c11.832,0.279,22.678,0.535,32.291,0.762c4.807,0.109,9.305,0.212,13.465,0.308
			c4.16,0.065,7.98,0.126,11.43,0.18c0.863,0.014,1.703,0.027,2.52,0.04c0.408,0.007,0.811,0.013,1.205,0.02l0.59,0.006
			c0.281,0.002,0.4,0.027,0.629,0.061c0.98,0.227,1.615,0.954,1.818,1.798c0.084,0.446,0.059,0.805,0.057,1.143
			c-0.002,0.348-0.006,0.689-0.008,1.024c-0.023,2.681-0.043,4.96-0.059,6.81c-0.033,3.697-0.049,5.669-0.049,5.669L242.742,23.021z
			 M242.244,22.995c0,0-0.018-1.972-0.049-5.669c-0.016-1.85-0.037-4.129-0.059-6.81c-0.004-0.335-0.006-0.676-0.01-1.024
			c0-0.356,0.002-0.71-0.057-0.971c-0.07-0.284-0.227-0.543-0.432-0.765c-0.217-0.201-0.512-0.363-0.758-0.422
			c-0.146-0.023-0.416-0.055-0.525-0.044l-0.59,0.006c-0.395,0.006-0.797,0.013-1.205,0.02c-0.816,0.013-1.656,0.026-2.52,0.04
			c-3.449,0.054-7.27,0.115-11.43,0.18c-4.16,0.095-8.658,0.198-13.465,0.308c-9.613,0.227-20.459,0.483-32.291,0.762
			c-11.83,0.292-24.648,0.573-38.205,0.689c-6.779,0.09-13.742,0.12-20.859,0.132c-7.118,0.022-14.389,0.044-21.784,0.067
			C83.219,9.413,67.936,9.33,52.407,9.245C36.936,9.131,21.219,9.016,5.502,8.9C5.508,8.896,5.51,8.887,5.499,8.892
			C5.498,8.882,5.488,8.92,5.5,8.868C5.53,8.831,5.532,8.694,5.512,8.72L5.473,9.087c0.02-0.34,0.005,0.012,0.009-0.017L5.48,9.256
			l-0.002,0.37l-0.005,0.739l-0.009,1.479l-0.025,5.182c0.007,0.024,0.041,0.066,0.068,0.08c0.026,0.029-0.047-0.028-0.1-0.023
			c-0.005-0.002-0.111,0.006-0.032,0.015l0.183,0.024c-0.025,0.002,0.315,0.031-0.01,0.01l0.185,0.006l0.368,0.012l2.951,0.091
			c1.967,0.062,3.933,0.122,5.896,0.183c7.854,0.244,15.676,0.487,23.437,0.729c15.521,0.482,30.797,0.956,45.58,1.415
			c14.781,0.476,29.073,0.866,42.621,1.36c13.549,0.491,26.359,0.955,38.184,1.385c11.824,0.469,22.662,0.852,32.271,1.173
			c4.803,0.164,9.299,0.317,13.457,0.459c4.158,0.116,7.977,0.223,11.426,0.319c6.9,0.164,12.322,0.295,16.018,0.383
			c0.924,0.021,1.74,0.039,2.445,0.055c0.658,0.047,1.127-0.252,1.406-0.555c0.297-0.315,0.363-0.621,0.416-0.811
			c0.023-0.242,0.035-0.364,0.035-0.364V22.995z"/>
	</g>
</g>
<g opacity="0.5">
	<path fill="#738035" d="M238.461,26c0,1.1-0.898,1.957-1.998,1.904L9.46,17.123c-1.099-0.052-1.998-0.994-1.998-2.094V5
		c0-1.1,0.899-1.973,1.999-1.939l227.002,6.879c1.1,0.033,1.998,0.96,1.998,2.061V26z"/>
	<g>
		<path fill="#738035" d="M238.711,26.025c0,0-0.014,0.119-0.037,0.354c-0.053,0.26-0.168,0.693-0.529,1.068
			c-0.34,0.384-0.973,0.748-1.74,0.697c-0.686-0.034-1.479-0.074-2.375-0.119c-3.592-0.175-8.859-0.432-15.564-0.758
			c-3.352-0.149-7.064-0.314-11.105-0.496c-4.041-0.154-8.414-0.321-13.084-0.5c-9.344-0.363-19.883-0.752-31.385-1.127
			c-11.5-0.414-23.957-0.863-37.135-1.338c-13.176-0.471-27.065-1.099-41.437-1.677c-14.371-0.595-29.221-1.209-44.311-1.833
			c-7.545-0.312-15.149-0.627-22.783-0.943c-1.909-0.078-3.819-0.158-5.731-0.236l-1.435-0.06l-0.358-0.015l-0.18-0.008
			c-0.145-0.012,0.071,0.017-0.369-0.029l-0.355-0.051c-0.224-0.045-0.543-0.143-0.799-0.244c-0.893-0.392-1.541-1.016-1.982-1.824
			c-0.225-0.393-0.365-0.85-0.432-1.307l-0.035-0.35c-0.011-0.125-0.017-0.24-0.015-0.277l-0.002-0.359l-0.035-5.75L5.479,5.967
			L5.475,5.249l-0.001-0.18C5.469,5.053,5.498,4.565,5.494,4.687l0.018-0.179c0.006-0.059,0.003-0.093,0.044-0.28
			C5.619,3.938,5.712,3.61,5.822,3.371c0.11-0.217,0.227-0.435,0.359-0.637c0.148-0.193,0.307-0.38,0.472-0.559
			C6.834,2.014,7.026,1.86,7.223,1.716c0.412-0.264,0.863-0.464,1.343-0.568c0.45-0.104,1.068-0.1,1.199-0.091l1.438,0.033
			l2.876,0.064l5.748,0.13c3.831,0.086,7.658,0.173,11.478,0.259c7.64,0.172,15.248,0.344,22.798,0.514
			c15.098,0.373,29.955,0.74,44.334,1.095c7.188,0.24,14.255,0.477,21.172,0.708c6.919,0.222,13.687,0.457,20.273,0.746
			c13.174,0.516,25.625,1.174,37.117,1.815c11.492,0.627,22.027,1.203,31.365,1.713c4.67,0.251,9.039,0.486,13.08,0.704
			c4.041,0.188,7.752,0.361,11.105,0.517c0.838,0.039,1.654,0.077,2.447,0.114c0.396,0.019,0.787,0.037,1.172,0.055l0.287,0.012
			c0.176,0.016,0.211,0.027,0.324,0.041c0.162,0.006,0.455,0.121,0.654,0.201c0.801,0.396,1.34,1.191,1.387,2.029
			c0.029,0.759-0.004,1.393-0.002,2.057c-0.021,2.607-0.041,4.824-0.059,6.623c-0.031,3.596-0.049,5.514-0.049,5.514V26.025z
			 M238.211,26c0,0-0.016-1.918-0.049-5.514c-0.016-1.799-0.035-4.016-0.059-6.623c-0.012-0.638,0.004-1.359-0.033-1.996
			c-0.037-0.571-0.426-1.115-0.975-1.375c-0.471-0.232-1.357-0.135-2.125-0.173c-0.795-0.011-1.611-0.022-2.449-0.034
			c-3.357-0.047-7.072-0.1-11.117-0.156c-4.047-0.028-8.422-0.058-13.098-0.089c-9.352-0.056-19.902-0.12-31.412-0.189
			c-11.51-0.056-23.979-0.153-37.16-0.436c-6.592-0.11-13.361-0.286-20.279-0.483c-6.919-0.188-13.989-0.379-21.177-0.575
			C83.904,7.84,69.052,7.306,53.959,6.764C39.272,6.198,24.353,5.624,9.434,5.049c0.009,0.006,0.012,0,0.007-0.011
			c0.011,0.005,0.014,0,0.007-0.009c0.007,0,0.015-0.002,0.006-0.011C9.464,4.995,9.506,4.904,9.49,4.841
			c-0.005-0.074-0.014,0.013-0.02,0.073L9.452,5.092C9.436,5.333,9.45,4.964,9.45,5.068l-0.001,0.18L9.444,5.967L9.427,8.844
			l-0.035,5.75L9.39,14.953c-0.003,0.082,0.003,0.086,0.007,0.08c0.002,0.002,0.003,0.005,0,0.008
			c0.002,0.01-0.007,0.029,0.013,0.047c0.005,0.035,0.09,0.102,0.072,0.099c-0.03-0.024-0.127-0.028-0.121-0.009l0.354,0.055
			c-0.322-0.029,0.014-0.002-0.012-0.006l0.179,0.01l0.358,0.019l1.434,0.077c1.911,0.103,3.82,0.205,5.728,0.307
			c7.63,0.41,15.23,0.816,22.771,1.221c15.081,0.809,29.922,1.605,44.284,2.375c14.362,0.787,28.248,1.479,41.409,2.258
			c13.164,0.775,25.607,1.51,37.094,2.188c11.486,0.717,22.016,1.328,31.352,1.853c4.666,0.265,9.035,0.513,13.072,0.741
			c4.041,0.204,7.752,0.391,11.104,0.56c6.705,0.311,11.973,0.554,15.564,0.721c0.898,0.04,1.691,0.076,2.377,0.106
			c0.621,0.036,1.086-0.25,1.352-0.545c0.146-0.143,0.217-0.309,0.293-0.439c0.039-0.141,0.088-0.236,0.105-0.348
			c0.023-0.234,0.035-0.354,0.035-0.354L238.211,26z"/>
	</g>
</g>
</svg>
