<?xml version="1.0" encoding="utf-8"?>
<!-- Generator: Adobe Illustrator 16.0.0, SVG Export Plug-In . SVG Version: 6.00 Build 0)  -->
<!DOCTYPE svg PUBLIC "-//W3C//DTD SVG 1.1//EN" "http://www.w3.org/Graphics/SVG/1.1/DTD/svg11.dtd">
<svg version="1.1" id="Layer_1" xmlns="http://www.w3.org/2000/svg" xmlns:xlink="http://www.w3.org/1999/xlink" x="0px" y="0px"
	 width="245px" height="20px" viewBox="0 0 245 20" enable-background="new 0 0 245 20" xml:space="preserve">
<g opacity="0.5">
	<path fill="#B34142" d="M240.555,16.105c0,1.1-0.9,1.992-2,1.984L3.561,16.123c-1.1-0.01-2-0.918-2-2.018V4c0-1.1,0.9-2,2-2
		h234.994c1.1,0,2,0.9,2,2V16.105z"/>
	<g>
		<path fill="#B34142" d="M240.705,16.121c0,0-0.014,0.123-0.037,0.363c-0.057,0.256-0.16,0.668-0.512,1.043
			c-0.33,0.375-0.939,0.758-1.699,0.721c-0.705-0.004-1.521-0.01-2.445-0.014c-3.697-0.021-9.119-0.064-16.02-0.037
			c-6.9-0.02-15.281,0.111-24.895,0.178c-9.613,0.08-20.459,0.172-32.289,0.271c-11.832,0.062-24.646-0.031-38.201-0.195
			c-13.555-0.174-27.846-0.559-42.632-0.865c-14.785-0.355-30.063-0.625-45.59-0.725c-7.764-0.033-15.589-0.066-23.444-0.1
			c-1.965,0.004-3.931,0.008-5.897,0.014l-2.952,0.008l-0.369,0.002c-0.092-0.004-0.057,0.006-0.252-0.006l-0.184-0.018
			c-0.174,0.002-0.692-0.129-0.938-0.275c-0.585-0.297-1.054-0.811-1.295-1.428c-0.124-0.307-0.173-0.643-0.189-0.967l-0.009-0.738
			l-0.017-1.479L0.806,8.918L0.773,5.961L0.756,4.483c-0.011-0.427-0.041-1.149,0.338-1.83c0.327-0.612,0.884-1.096,1.546-1.33
			c0.314-0.129,0.717-0.16,1-0.173l0.739-0.01l2.957-0.038l5.911-0.076c3.94-0.05,7.876-0.1,11.804-0.15
			c7.855-0.066,15.681-0.133,23.444-0.198C64.023,0.6,79.303,0.521,94.09,0.446c7.394-0.016,14.664-0.032,21.781-0.048
			c7.116,0.013,14.078,0.025,20.857,0.038c13.555,0.047,26.371,0.107,38.201,0.3c11.83,0.214,22.674,0.411,32.285,0.585
			c9.611,0.15,17.992,0.352,24.893,0.395c1.725,0.018,3.357,0.035,4.895,0.051c0.385,0.004,0.762,0.008,1.135,0.012
			c0.195,0.009,0.35-0.011,0.574,0.021l0.271,0.031l0.301,0.093c0.77,0.265,1.289,0.95,1.43,1.67
			c0.072,2.75,0.004,4.979,0.016,6.844c-0.016,3.698-0.023,5.668-0.023,5.668V16.121z M240.404,16.105c0,0-0.008-1.971-0.021-5.668
			c-0.023-1.831,0.018-4.167-0.061-6.77c-0.117-0.582-0.561-1.151-1.168-1.345l-0.217-0.069l-0.27-0.025
			c-0.139-0.023-0.355-0.003-0.531-0.007c-0.373,0.004-0.75,0.008-1.135,0.012c-1.537,0.016-3.17,0.033-4.895,0.051
			c-6.9,0.043-15.281,0.245-24.893,0.395c-9.611,0.174-20.455,0.371-32.285,0.585c-11.83,0.193-24.646,0.253-38.201,0.3
			c-6.779,0.012-13.741,0.025-20.857,0.038c-7.117-0.016-14.388-0.032-21.781-0.048C79.303,3.479,64.023,3.4,48.496,3.321
			c-7.764-0.065-15.589-0.132-23.444-0.198c-3.928-0.05-7.863-0.1-11.804-0.15L7.336,2.897L4.379,2.859L3.64,2.85
			C3.433,2.862,3.337,2.858,3.189,2.911C2.92,2.997,2.678,3.192,2.535,3.443c-0.124,0.185-0.184,0.489-0.169,1.04L2.349,5.961
			L2.316,8.918l-0.032,2.957l-0.017,1.479l-0.009,0.738c0.013,0.17,0.025,0.322,0.083,0.477c0.109,0.303,0.34,0.568,0.628,0.723
			c0.075,0.055,0.133,0.062,0.188,0.086c0.032,0.01,0.046,0.029,0.092,0.041l0.184,0.021l0.184,0.021
			c-0.073-0.002,0.086,0.002,0.117,0.002l0.369,0.008l2.951,0.057c1.968,0.039,3.933,0.076,5.896,0.113
			c7.855,0.098,15.681,0.195,23.443,0.293c15.525,0.158,30.807,0.146,45.596,0.037c14.789-0.059,29.085-0.205,42.64-0.15
			c13.555,0.062,26.371,0.184,38.199,0.443c11.828,0.299,22.67,0.57,32.279,0.812c9.611,0.227,17.988,0.498,24.889,0.594
			c6.9,0.143,12.322,0.191,16.02,0.232c0.924,0.01,1.74,0.02,2.445,0.027c0.674,0.035,1.174-0.289,1.467-0.607
			c0.59-0.676,0.432-1.238,0.479-1.232L240.404,16.105z"/>
	</g>
</g>
<g opacity="0.5">
	<path fill="#B34142" d="M244.055,15.105c0,1.1-0.9,2.008-2,2.018L7.061,19.09c-1.1,0.008-2-0.885-2-1.984V7
		c0-1.1,0.9-2.004,2-2.008l234.994-0.983c1.1-0.004,2,0.892,2,1.992V15.105z"/>
	<g>
		<path fill="#B34142" d="M244.205,15.121c0,0-0.012,0.121-0.037,0.361c-0.053,0.254-0.156,0.662-0.5,1.039
			c-0.324,0.379-0.912,0.766-1.672,0.76c-0.701,0.008-1.512,0.018-2.432,0.027c-3.674,0.041-9.064,0.09-15.922,0.23
			c-6.859,0.096-15.188,0.367-24.74,0.594c-9.555,0.242-20.332,0.514-32.09,0.811c-11.758,0.26-24.496,0.381-37.971,0.441
			c-13.475,0.055-27.687-0.094-42.387-0.152c-14.701-0.109-29.892-0.123-45.326,0.035c-7.717,0.098-15.494,0.193-23.303,0.291
			c-1.952,0.037-3.906,0.076-5.862,0.113L9.03,19.729l-1.468,0.029c-0.443,0.012-1.103,0.053-1.756-0.295
			c-0.586-0.299-1.054-0.822-1.284-1.447c-0.124-0.305-0.16-0.662-0.175-0.959l-0.009-0.734l-0.032-2.939L4.24,7.503L4.235,7.136
			C4.232,7.149,4.234,6.911,4.242,6.868l0.017-0.183l0.019-0.19l0.074-0.291c0.051-0.202,0.121-0.381,0.206-0.523
			c0.316-0.618,0.862-1.111,1.517-1.362C6.396,4.188,6.767,4.14,7.09,4.123L7.825,4.11l1.47-0.025l5.876-0.1
			c3.916-0.066,7.828-0.133,11.732-0.199C34.711,3.687,42.49,3.588,50.207,3.49C65.641,3.346,80.831,3.205,95.53,3.068
			c7.35-0.047,14.577-0.093,21.65-0.139c7.074-0.017,13.996-0.033,20.734-0.049c13.475-0.009,26.213-0.002,37.975,0.141
			c11.76,0.165,22.541,0.317,32.096,0.451c9.557,0.11,17.887,0.276,24.746,0.291c3.43,0.017,6.492,0.032,9.158,0.046
			c0.162-0.008,0.367,0.02,0.512,0.034c0.164,0.02,0.357,0.092,0.525,0.148c0.312,0.157,0.607,0.351,0.812,0.623
			c0.225,0.252,0.355,0.566,0.439,0.876c0.068,0.322,0.068,0.634,0.062,0.905c-0.004,1.129-0.008,2.155-0.012,3.074
			c-0.016,3.676-0.023,5.635-0.023,5.635V15.121z M243.904,15.105c0,0-0.008-1.959-0.021-5.635
			c-0.004-0.919-0.008-1.945-0.012-3.074c0.027-0.58-0.053-1.094-0.43-1.537c-0.168-0.225-0.416-0.379-0.672-0.509
			c-0.137-0.038-0.246-0.094-0.406-0.114c-0.182-0.014-0.303-0.037-0.475-0.028c-2.664,0.036-5.727,0.077-9.156,0.123
			c-6.859,0.072-15.188,0.308-24.742,0.498c-9.553,0.214-20.332,0.456-32.092,0.72c-11.758,0.242-24.498,0.355-37.973,0.459
			c-6.736,0.041-13.658,0.082-20.732,0.125c-7.074,0.014-14.302,0.028-21.651,0.043c-14.7-0.014-29.89-0.028-45.324-0.043
			C42.5,6.099,34.721,6.065,26.912,6.032c-3.904-0.034-7.816-0.067-11.732-0.101L9.302,5.879l-1.47-0.013L7.097,5.86
			C6.931,5.874,6.813,5.878,6.675,5.929C6.414,6.02,6.179,6.217,6.042,6.466C5.996,6.533,5.981,6.583,5.969,6.619
			c-0.009,0.02-0.021,0.04-0.036,0.06c-0.01,0.045-0.015,0.117-0.022,0.175L5.89,7.036C5.879,7.115,5.894,7,5.887,7.136L5.882,7.503
			l-0.066,5.88l-0.032,2.939l-0.009,0.734c0.013,0.191,0.017,0.324,0.075,0.479c0.101,0.297,0.319,0.557,0.599,0.709
			c0.215,0.137,0.575,0.186,1.102,0.168l1.469,0.004l2.935,0.008c1.955,0.006,3.91,0.01,5.862,0.016
			c7.809-0.033,15.588-0.066,23.305-0.1c15.435-0.1,30.623-0.367,45.32-0.723c14.697-0.305,28.904-0.691,42.377-0.861
			c13.475-0.166,26.213-0.258,37.975-0.195c11.762,0.102,22.541,0.191,32.098,0.273c9.555,0.066,17.887,0.199,24.746,0.18
			c6.861,0.025,12.25-0.016,15.926-0.037c0.918-0.004,1.73-0.01,2.43-0.014c0.666,0.01,1.158-0.32,1.443-0.643
			c0.582-0.68,0.424-1.236,0.471-1.23L243.904,15.105z"/>
	</g>
</g>
</svg>
