<?xml version="1.0" encoding="utf-8"?>
<!-- Generator: Adobe Illustrator 16.0.0, SVG Export Plug-In . SVG Version: 6.00 Build 0)  -->
<!DOCTYPE svg PUBLIC "-//W3C//DTD SVG 1.1//EN" "http://www.w3.org/Graphics/SVG/1.1/DTD/svg11.dtd">
<svg version="1.1" id="Layer_1" xmlns="http://www.w3.org/2000/svg" xmlns:xlink="http://www.w3.org/1999/xlink" x="0px" y="0px"
	 width="250px" height="27px" viewBox="0 0 250 27" enable-background="new 0 0 250 27" xml:space="preserve">
<g opacity="0.5">
	<path fill="#D4A24A" d="M243.498,21.029c0,1.1-0.9,1.988-2,1.975L6.503,20.053c-1.1-0.014-2-0.924-2-2.024V6.923c0-1.1,0.9-2,2-2
		h234.995c1.1,0,2,0.9,2,2V21.029z"/>
	<g>
		<path fill="#D4A24A" d="M243.896,21.068c0,0-0.014,0.125-0.037,0.367c-0.062,0.297-0.189,0.777-0.584,1.189
			c-0.365,0.424-1.084,0.838-1.902,0.787c-0.709-0.008-1.531-0.016-2.461-0.025c-3.719-0.029-9.174-0.033-16.117,0.061
			c-1.736,0.029-3.564,0.062-5.482,0.098c-1.918,0.055-3.926,0.111-6.02,0.17c-4.186,0.105-8.713,0.264-13.549,0.453
			c-4.838,0.186-9.984,0.381-15.412,0.588c-5.426,0.158-11.131,0.383-17.084,0.486c-11.904,0.232-24.797,0.203-38.43-0.172
			c-13.633-0.328-28.004-1.146-42.871-1.916c-14.867-0.756-30.232-1.381-45.852-1.484c-3.905-0.025-7.825-0.049-11.757-0.074
			c-3.933,0.018-7.877,0.033-11.829,0.051c-1.976,0.025-3.954,0.051-5.934,0.078l-1.485,0.02L6.72,21.75l-0.186,0.002
			C6.51,21.76,6.086,21.725,6.178,21.73l-0.186-0.016c-0.034,0.002-0.152-0.018-0.308-0.055c-0.261-0.064-0.588-0.156-0.775-0.26
			c-0.833-0.387-1.508-1.074-1.879-1.928c-0.082-0.217-0.154-0.441-0.217-0.666c-0.043-0.229-0.068-0.463-0.088-0.696l-0.024-0.781
			l-0.192-5.947L2.411,8.407L2.387,7.664L2.374,7.292L2.368,7.105c0.003-0.159-0.016,0.093,0.005-0.403l0.025-0.371
			c0.028-0.227,0.122-0.619,0.224-0.909C2.831,4.89,3.085,4.477,3.436,4.081c0.684-0.769,1.683-1.283,2.735-1.376l0.361-0.029
			l0.186-0.006L7.09,2.657l0.744-0.025l2.975-0.102l5.946-0.202c3.963-0.134,7.923-0.268,11.874-0.402
			c3.951-0.106,7.895-0.212,11.827-0.317c3.932-0.075,7.852-0.149,11.757-0.223c15.62-0.211,30.991-0.419,45.867-0.62
			c14.875-0.184,29.255-0.183,42.892-0.046C154.607,0.873,167.5,1.026,179.4,1.553c11.9,0.444,22.811,1.09,32.479,1.579
			c4.836,0.255,9.359,0.474,13.543,0.634c4.184,0.188,8.027,0.327,11.498,0.423c0.867,0.023,1.713,0.045,2.533,0.066
			c0.41,0.01,0.814,0.02,1.213,0.029l0.594,0.014l0.146,0.004l0.074,0.001c0.15,0.006,0.082,0.007,0.135,0.011l0.289,0.036
			c1.088,0.208,1.809,0.979,2.049,1.887c0.08,0.22,0.064,0.456,0.092,0.679l-0.008,0.531c-0.006,0.349-0.01,0.693-0.016,1.03
			c-0.035,2.696-0.064,4.99-0.088,6.849c-0.023,3.719-0.035,5.703-0.035,5.703L243.896,21.068z M243.098,21.029
			c0,0-0.012-1.984-0.035-5.703c-0.025-1.859-0.055-4.153-0.09-6.849c-0.004-0.337-0.01-0.681-0.016-1.03l-0.008-0.528
			c-0.031-0.126-0.01-0.262-0.072-0.38c-0.125-0.499-0.656-0.91-1.098-0.973l-0.289-0.023l-0.23,0.005l-0.594,0.014
			c-0.398,0.009-0.803,0.019-1.213,0.029c-0.82,0.021-1.666,0.043-2.533,0.066c-3.471,0.096-7.314,0.236-11.498,0.423
			c-4.184,0.16-8.707,0.378-13.543,0.634c-9.668,0.488-20.578,1.135-32.479,1.579c-11.9,0.527-24.793,0.68-38.429,0.834
			C127.335,9.263,112.955,9.264,98.08,9.08C83.204,8.879,67.833,8.671,52.213,8.46c-3.905-0.074-7.825-0.148-11.757-0.223
			c-3.933-0.105-7.876-0.211-11.827-0.317c-3.951-0.134-7.911-0.268-11.874-0.402l-5.946-0.202L7.834,7.214L6.523,7.172
			c0.065-0.024,0.112-0.073,0.124-0.114c-0.114,3.424-0.229,6.85-0.343,10.271l-0.016,0.704c0.008,0.013,0.001,0.025-0.009,0.041
			c0.012,0.013,0.012,0.025,0.004,0.045c0.013,0.062,0.064,0.137,0.125,0.178c0.024,0.027-0.051-0.027-0.081-0.003
			C6.289,18.299,6.29,18.312,6.38,18.32l0.185,0.025c0.215,0.017-0.087,0.008,0.013,0.01l0.186,0.007l0.371,0.015l1.483,0.058
			c1.979,0.076,3.955,0.152,5.931,0.228c3.95,0.116,7.893,0.231,11.823,0.348c3.932,0.074,7.851,0.148,11.755,0.221
			c15.617,0.289,30.993,0.051,45.875-0.332c14.882-0.396,29.269-0.854,42.905-0.841c13.638-0.032,26.527,0.263,38.422,0.794
			c5.949,0.254,11.646,0.621,17.066,0.914c5.42,0.344,10.561,0.67,15.393,0.975c4.83,0.312,9.352,0.584,13.533,0.793
			c2.092,0.113,4.096,0.221,6.014,0.322c1.916,0.084,3.744,0.162,5.479,0.236c6.939,0.268,12.393,0.4,16.111,0.463
			c0.93,0.016,1.75,0.027,2.459,0.039c0.623,0.037,1.031-0.236,1.295-0.512c0.137-0.139,0.209-0.291,0.281-0.416
			c0.041-0.129,0.078-0.207,0.102-0.312c0.025-0.242,0.039-0.365,0.039-0.365L243.098,21.029z"/>
	</g>
</g>
<g opacity="0.5">
	<path fill="#D4A24A" d="M247.5,22c0,1.102-0.898,1.971-1.998,1.936L7.505,16.066c-1.1-0.036-1.999-0.966-1.999-2.065v-1.106
		c0-1.1,0.899-2.011,2-2.024L245.5,7.92c1.102-0.014,2,0.875,2,1.975V22z"/>
	<g>
		<path fill="#D4A24A" d="M247.898,22.041c0,0-0.014,0.123-0.039,0.361c-0.021,0.131-0.086,0.342-0.164,0.551
			c-0.102,0.191-0.219,0.416-0.42,0.623c-0.369,0.412-1.08,0.812-1.891,0.742c-0.699-0.025-1.51-0.055-2.43-0.09
			c-3.674-0.121-9.061-0.367-15.918-0.557c-3.43-0.098-7.227-0.205-11.361-0.324c-4.135-0.088-8.605-0.184-13.385-0.285
			c-9.557-0.178-20.34-0.312-32.105-0.443c-11.766-0.143-24.512-0.279-37.988-0.555c-13.478-0.238-27.687-0.629-42.388-0.957
			c-14.7-0.346-29.891-0.701-45.326-1.064c-7.718-0.182-15.496-0.363-23.306-0.547c-3.905-0.092-7.817-0.184-11.733-0.275
			l-1.469-0.035l-0.367-0.008l-0.185-0.006c-0.684-0.055-0.294-0.027-0.493-0.047C6.781,19.1,6.806,19.133,6.29,19.006
			c-0.197-0.053-0.394-0.113-0.585-0.184c-0.209-0.073-0.362-0.146-0.483-0.216c-1.094-0.557-1.958-1.477-2.444-2.614
			c-0.231-0.577-0.377-1.188-0.399-1.821l-0.011-0.287L2.365,13.7l-0.003-0.368l-0.004-0.367c0,0.014,0.035-0.725,0.026-0.501
			l0.017-0.183c0.004-0.045,0.004-0.103,0.056-0.361c0.04-0.203,0.092-0.406,0.152-0.605c0.13-0.442,0.268-0.68,0.417-0.96
			c0.611-1.089,1.609-1.938,2.805-2.36c0.302-0.102,0.604-0.199,0.92-0.232l0.474-0.054c0.188-0.016,0.304-0.02,0.332-0.019
			l0.735-0.016l1.47-0.032c15.681-0.378,31.361-0.756,46.797-1.127c15.435-0.414,30.626-0.765,45.328-0.982
			c14.702-0.164,28.916-0.302,42.396-0.206c13.48,0.02,26.229,0.318,37.996,0.603c11.768,0.324,22.555,0.622,32.117,0.885
			c4.779,0.104,9.254,0.202,13.391,0.292c4.137,0.054,7.936,0.104,11.367,0.148c1.717,0.018,3.34,0.035,4.867,0.051
			c0.383,0,0.758,0.001,1.129,0.001l0.275,0l0.131,0.003l0.068,0.007l0.137,0.014c0.148,0,0.436,0.076,0.682,0.159
			c0.877,0.356,1.492,1.158,1.592,2.018c0.059,0.471,0.02,0.727,0.023,1.065c-0.004,0.321-0.008,0.635-0.012,0.943
			c-0.01,0.616-0.018,1.207-0.025,1.771c-0.016,1.13-0.029,2.155-0.043,3.075C247.928,20.041,247.9,22,247.9,22L247.898,22.041z
			 M247.1,22c0,0-0.025-1.959-0.078-5.636c-0.012-0.92-0.025-1.945-0.041-3.075c-0.01-0.564-0.018-1.155-0.025-1.771
			c-0.004-0.308-0.01-0.622-0.014-0.943c-0.008-0.301,0.004-0.702-0.037-0.893c-0.057-0.469-0.436-0.893-0.881-1.064
			c-0.389-0.153-1.242-0.045-1.986-0.048c-1.527,0.054-3.15,0.111-4.865,0.172c-3.428,0.129-7.225,0.273-11.359,0.43
			c-4.133,0.192-8.604,0.401-13.381,0.624c-9.551,0.5-20.328,1.065-32.084,1.681c-11.756,0.576-24.494,1.191-37.969,1.545
			c-13.475,0.43-27.687,0.645-42.39,0.845c-14.703,0.147-29.897,0.174-45.338,0.143c-15.44,0.011-31.125,0.021-46.811,0.033
			L8.37,14.046l-0.734,0.002c-0.095-0.002-0.102,0.003-0.035,0.004c0.037,0.001,0.073-0.003,0.108-0.012
			c0.069-0.027,0.143-0.025,0.21-0.055c0.271-0.102,0.474-0.282,0.604-0.52c0.034-0.063,0.039-0.093,0.115-0.293
			c0.024-0.082,0.039-0.169,0.044-0.255c0.005-0.143-0.006-0.078-0.012,0L8.65,13.1c-0.021,0.346,0.004-0.266,0.003-0.135
			l-0.004,0.367L8.646,13.7l-0.002,0.184c-0.001,0.059-0.002,0.154,0.003,0.079c-0.008-0.138-0.033-0.275-0.097-0.39
			c-0.103-0.233-0.258-0.395-0.479-0.509c-0.018-0.001-0.062-0.021-0.151-0.062c-0.075-0.03-0.155-0.052-0.237-0.062
			c-0.289-0.027-0.016,0.014,0.076,0.024C7.681,12.96,8.191,13.01,7.63,12.962l0.184,0.008l0.366,0.016l1.468,0.062
			c3.914,0.167,7.824,0.334,11.727,0.5c7.805,0.333,15.579,0.664,23.292,0.993c15.425,0.657,30.606,1.306,45.297,1.932
			c14.69,0.644,28.895,1.193,42.358,1.845c13.466,0.614,26.192,1.321,37.942,1.956c11.748,0.645,22.518,1.223,32.064,1.678
			c4.773,0.215,9.242,0.414,13.375,0.6c4.131,0.154,7.928,0.297,11.355,0.426c6.857,0.264,12.248,0.375,15.922,0.496
			c0.918,0.027,1.73,0.051,2.43,0.072c0.615,0.045,1.027-0.23,1.285-0.502c0.135-0.137,0.203-0.289,0.273-0.412
			c0.039-0.129,0.076-0.203,0.098-0.309c0.023-0.24,0.037-0.363,0.037-0.363L247.1,22z"/>
	</g>
</g>
</svg>
